<?xml version="1.0" standalone="no"?>
<!DOCTYPE svg PUBLIC "-//W3C//DTD SVG 20010904//EN"
 "http://www.w3.org/TR/2001/REC-SVG-20010904/DTD/svg10.dtd">
<svg version="1.0" xmlns="http://www.w3.org/2000/svg"
 width="952.000000pt" height="835.000000pt" viewBox="0 0 952.000000 835.000000"
 preserveAspectRatio="xMidYMid meet">

<g transform="translate(0.000000,835.000000) scale(0.100000,-0.100000)"
fill="#000000" stroke="none">
<path d="M4575 8344 c-444 -44 -766 -148 -1045 -337 l-64 -44 -72 23 c-141 45
-263 65 -424 71 -121 4 -170 2 -223 -11 -143 -34 -234 -105 -281 -219 l-22
-55 -90 51 c-198 112 -362 166 -529 174 -200 9 -345 -48 -490 -192 -183 -181
-300 -412 -521 -1022 -167 -463 -250 -650 -358 -812 -126 -188 -243 -275 -428
-315 l-28 -6 25 -66 c52 -139 165 -268 288 -330 79 -41 124 -55 231 -73 l98
-16 -57 -40 c-124 -85 -231 -215 -275 -333 -73 -195 -24 -447 134 -681 20 -29
36 -56 36 -61 0 -4 -18 -47 -41 -96 -629 -1362 -251 -2493 1082 -3233 1274
-707 3341 -919 5068 -520 1539 357 2537 1126 2745 2116 100 475 31 980 -209
1534 -37 85 -72 166 -78 180 -9 22 -5 33 30 85 158 233 207 480 133 677 -45
119 -150 246 -276 333 l-56 39 98 16 c55 9 118 24 142 33 177 65 323 210 382
380 l19 56 -27 6 c-138 30 -227 80 -319 178 -155 164 -253 360 -449 898 -140
385 -192 516 -269 673 -167 343 -351 527 -583 581 -95 23 -259 14 -373 -19
-105 -32 -238 -89 -343 -150 l-80 -45 -22 54 c-33 81 -89 141 -171 183 -147
74 -453 67 -734 -17 l-95 -28 -65 43 c-235 160 -525 265 -874 319 -96 14 -456
26 -540 18z m590 -483 c66 -12 161 -33 210 -47 102 -28 273 -109 324 -152 l34
-29 -129 -6 c-308 -14 -578 -115 -781 -293 l-62 -55 -73 61 c-226 190 -506
289 -823 290 l-80 1 35 29 c90 76 283 153 477 190 179 34 248 39 503 36 196
-3 269 -8 365 -25z m-1716 -311 c383 -78 815 -337 1208 -723 l102 -101 124
121 c312 301 677 541 986 647 468 162 863 85 1202 -232 l86 -81 17 37 c10 20
42 74 72 119 127 191 267 256 410 189 102 -48 229 -191 344 -391 105 -183 186
-362 382 -845 65 -162 143 -341 173 -397 29 -57 48 -103 42 -103 -28 1 -180
71 -248 115 -157 102 -287 225 -581 555 -281 316 -435 448 -633 545 -165 81
-246 99 -435 99 -224 -1 -392 -45 -645 -169 -122 -60 -368 -205 -379 -224 -3
-5 45 14 107 42 141 63 340 128 482 159 153 32 400 32 520 -1 306 -83 522
-298 730 -726 46 -93 116 -240 158 -325 41 -85 99 -189 130 -231 l55 -77 -53
23 c-76 34 -236 82 -351 106 -122 25 -433 37 -539 21 -38 -6 -70 -10 -72 -8
-1 1 4 37 12 80 37 195 -4 410 -101 526 l-26 30 32 0 c122 0 315 -76 399 -157
56 -54 55 -62 19 81 -58 235 -155 389 -287 454 -49 24 -67 27 -151 27 -172 -1
-315 -65 -722 -320 -449 -281 -616 -340 -759 -267 -64 32 -118 98 -151 186
l-22 60 -19 -69 c-20 -76 -28 -262 -14 -329 8 -37 7 -39 -8 -26 -29 24 -103
134 -144 215 -49 94 -96 234 -121 353 -10 48 -20 80 -23 72 -2 -8 -16 -63 -30
-121 -45 -192 -137 -388 -233 -496 l-42 -48 15 55 c18 69 11 225 -15 325 l-18
69 -22 -60 c-33 -88 -87 -154 -151 -186 -143 -73 -313 -13 -759 267 -279 175
-406 243 -532 286 -80 27 -110 33 -190 33 -84 0 -102 -3 -151 -27 -134 -65
-233 -224 -292 -472 -29 -120 -32 -115 27 -59 86 81 217 135 365 151 l61 6
-43 -64 c-86 -129 -117 -311 -83 -488 8 -47 14 -86 13 -88 -2 -1 -34 3 -72 9
-117 18 -419 5 -556 -25 -95 -20 -276 -76 -363 -112 -12 -5 1 20 38 73 31 44
91 151 132 239 245 511 315 631 451 773 129 136 260 215 428 262 117 32 376
31 524 -1 137 -29 339 -96 480 -159 63 -28 116 -50 118 -49 7 8 -277 176 -392
232 -259 127 -424 169 -650 170 -176 0 -262 -19 -411 -89 -208 -99 -344 -214
-642 -546 -382 -426 -541 -563 -747 -647 -106 -43 -112 -42 -80 10 40 64 85
165 191 425 305 753 447 1021 627 1188 150 139 291 141 429 4 55 -56 130 -161
164 -233 l17 -36 70 65 c197 187 403 292 632 323 97 14 266 5 384 -19z m-249
-1328 l45 -7 -3 -58 c-7 -115 68 -211 176 -224 43 -5 60 -1 105 21 33 16 64
40 78 61 13 19 29 35 34 35 14 0 101 -77 94 -84 -8 -9 -255 -75 -359 -96 -366
-74 -535 5 -462 215 10 28 30 72 45 98 l28 47 87 -1 c48 0 107 -4 132 -7z
m3383 -72 c114 -225 9 -334 -291 -301 -59 6 -145 20 -192 31 -157 37 -310 82
-310 91 0 9 97 89 109 89 3 0 15 -16 25 -35 26 -48 83 -84 144 -92 43 -5 60
-1 105 21 78 38 112 89 111 170 0 34 -2 68 -4 76 -7 20 47 28 170 26 l95 -1
38 -75z m-3073 5 c26 -32 -13 -81 -47 -59 -35 22 -23 74 17 74 10 0 23 -7 30
-15z m2610 0 c26 -32 -13 -81 -47 -59 -35 22 -23 74 17 74 10 0 23 -7 30 -15z
m-2131 -335 c110 -14 227 -58 308 -116 75 -53 78 -48 -37 -74 -145 -33 -279
-136 -339 -263 -52 -109 -55 -101 72 -192 168 -121 392 -302 488 -396 155
-153 196 -244 124 -277 -45 -21 -82 -13 -179 35 l-94 46 -66 -52 -67 -52 -106
71 c-58 40 -159 98 -224 130 l-117 59 -9 58 c-4 32 -8 157 -8 278 1 169 5 237
18 294 9 41 15 77 12 79 -10 10 -114 -70 -177 -136 -100 -104 -192 -254 -248
-405 l-20 -53 -108 27 c-184 47 -348 62 -582 56 -213 -6 -320 -19 -518 -63
-145 -32 -413 -120 -429 -140 -43 -57 -42 -444 1 -649 67 -320 233 -661 456
-940 138 -172 396 -420 598 -573 l82 -63 0 50 c0 115 36 308 82 441 184 524
651 897 1308 1044 176 39 344 56 550 56 390 0 727 -73 1042 -227 544 -264 855
-705 894 -1267 l7 -95 81 62 c128 97 271 225 397 353 359 366 573 750 660
1183 39 192 36 572 -4 625 -16 20 -284 108 -429 140 -237 53 -306 60 -583 60
-278 1 -368 -9 -540 -59 -44 -13 -83 -21 -86 -17 -3 4 -14 30 -24 57 -52 144
-143 293 -243 397 -63 66 -167 146 -177 136 -3 -2 3 -38 12 -79 13 -57 17
-125 18 -294 0 -121 -4 -246 -8 -277 l-8 -58 -121 -61 c-66 -34 -167 -93 -225
-131 l-104 -69 -66 52 -65 52 -94 -46 c-52 -26 -107 -47 -124 -47 -66 0 -101
38 -85 92 32 101 257 310 617 573 155 113 149 100 95 215 -60 129 -200 233
-359 266 -40 8 -74 16 -75 18 -2 1 23 22 55 46 119 89 235 123 422 123 231 1
482 -66 830 -221 l104 -47 -124 -12 c-134 -13 -269 -47 -364 -91 l-59 -28 309
-23 c358 -26 725 -62 939 -91 889 -121 1324 -337 1420 -706 20 -75 19 -234 -1
-330 -52 -256 -232 -590 -511 -951 -35 -45 -63 -84 -63 -87 0 -10 114 45 190
92 97 60 252 214 315 315 46 73 50 77 56 53 37 -136 36 -555 0 -761 -83 -465
-270 -841 -584 -1172 -89 -93 -338 -303 -360 -303 -2 0 4 30 14 67 60 213 77
576 39 798 -31 180 -119 418 -186 501 -14 18 -15 18 -8 -6 13 -45 7 -312 -9
-410 -65 -387 -243 -762 -526 -1108 -151 -184 -379 -403 -581 -557 l-65 -49
37 44 c116 137 230 341 292 519 55 157 76 274 82 451 l4 155 -20 -71 c-106
-382 -316 -671 -646 -893 -306 -206 -646 -326 -1079 -382 -150 -20 -541 -17
-690 5 -368 53 -674 154 -931 307 -396 236 -640 547 -755 964 l-20 70 5 -155
c6 -177 27 -294 82 -451 62 -177 156 -349 272 -494 l57 -70 -70 54 c-507 395
-863 859 -1019 1332 -78 237 -116 492 -98 672 9 102 7 101 -57 -23 -57 -109
-107 -266 -132 -411 -38 -223 -17 -608 45 -811 8 -27 12 -48 9 -48 -11 0 -111
78 -209 161 -491 421 -764 1026 -764 1695 0 157 12 317 28 378 7 27 9 25 57
-51 63 -101 218 -255 315 -315 74 -46 190 -103 190 -93 0 3 -40 58 -89 123
-243 322 -394 593 -466 837 -33 109 -45 295 -25 388 30 145 143 300 290 396
332 217 871 329 1995 416 182 14 341 27 355 28 21 3 17 7 -30 30 -88 42 -226
77 -360 90 l-124 12 80 37 c273 125 538 206 739 228 105 11 133 11 224 0z
m-370 -727 c-11 -100 -11 -375 1 -494 10 -104 47 -339 57 -365 3 -8 -18 -24
-59 -45 -98 -49 -192 -115 -257 -180 l-59 -59 -7 41 c-4 22 -4 91 0 152 19
338 79 587 193 810 38 74 124 207 135 207 2 0 0 -30 -4 -67z m2340 -16 c161
-239 244 -532 266 -938 4 -69 4 -140 0 -158 l-7 -31 -59 59 c-61 62 -149 124
-256 182 -35 19 -61 39 -59 45 9 25 46 264 56 363 12 118 13 394 2 493 -5 37
-4 64 0 62 5 -3 30 -38 57 -77z m-2773 -659 c-15 -409 -18 -450 -32 -436 -7 7
-108 141 -223 298 -202 273 -210 285 -183 288 22 2 222 12 411 21 l34 1 -7
-172z m3507 153 l107 -6 -217 -297 c-120 -163 -221 -297 -224 -297 -6 -1 -12
112 -25 446 l-7 172 129 -6 c71 -3 177 -8 237 -12z m-2705 -110 c62 -35 111
-65 110 -66 -2 -3 -263 -111 -316 -132 -13 -6 -12 60 4 245 l6 63 41 -24 c23
-13 93 -52 155 -86z m1752 -47 c6 -81 8 -149 7 -150 -3 -3 -318 124 -325 131
-1 1 66 41 150 88 84 47 154 84 156 83 2 -2 7 -70 12 -152z m-3164 99 c-15
-68 -35 -292 -42 -443 -10 -255 15 -538 70 -780 l24 -105 -45 50 c-53 60 -165
216 -217 302 -88 147 -171 347 -215 515 -28 110 -56 297 -45 308 11 10 443
178 462 179 10 1 12 -7 8 -26z m4609 -61 l230 -88 -3 -64 c-10 -209 -126 -543
-274 -788 -57 -94 -181 -263 -220 -300 l-25 -22 24 102 c54 240 79 524 69 778
-7 151 -27 375 -42 443 -3 15 -2 27 3 27 4 0 112 -40 238 -88z m-4240 -367
c99 -124 181 -228 182 -232 2 -9 -468 -385 -474 -380 -5 6 101 837 107 837 3
-1 86 -102 185 -225z m3873 -191 c29 -229 51 -418 49 -421 -6 -6 -476 371
-474 380 3 11 361 457 367 457 3 0 29 -187 58 -416z"/>
</g>
</svg>
